<?xml version="1.0" encoding="utf-8"?>
<!-- Generator: Adobe Illustrator 19.0.0, SVG Export Plug-In . SVG Version: 6.00 Build 0)  -->
<svg version="1.1" id="Capa_1" xmlns="http://www.w3.org/2000/svg" xmlns:xlink="http://www.w3.org/1999/xlink" x="0px" y="0px"
	 viewBox="-49 141 512 512" style="enable-background:new -49 141 512 512;" xml:space="preserve">
<style type="text/css">
	.st0{fill:#FFFFFF;}
</style>
<g>
	<g>
		<path class="st0" d="M92.4,257.5c-7.4-7.4-19.4-7.4-26.7,0c-27.4,27.4-40.9,65.6-37,104.8c1,9.8,9.2,17,18.8,17
			c0.6,0,1.3,0,1.9-0.1c10.4-1,18-10.3,16.9-20.7c-2.8-27.8,6.7-54.9,26.1-74.3C99.8,276.9,99.8,264.9,92.4,257.5z"/>
	</g>
</g>
<g>
	<g>
		<path class="st0" d="M167.3,141C48,141-49,238-49,357.3s97,216.3,216.3,216.3s216.3-97,216.3-216.3S286.5,141,167.3,141z
			 M167.3,535.7c-98.4,0-178.4-80-178.4-178.4s80-178.4,178.4-178.4c98.4,0,178.4,80,178.4,178.4S265.7,535.7,167.3,535.7z"/>
	</g>
</g>
<g>
	<g>
		<path class="st0" d="M457.5,620.7L320,483.3c-7.4-7.4-19.4-7.4-26.7,0c-7.4,7.4-7.4,19.4,0,26.7l137.5,137.5
			c3.7,3.7,8.5,5.5,13.4,5.5s9.7-1.8,13.4-5.5C464.8,640.1,464.8,628.1,457.5,620.7z"/>
	</g>
</g>
</svg>
